<mxfile host="65bd71144e">
    <diagram id="QWsOBrKWdhWz2E9n3cFf" name="Page-1">
        <mxGraphModel dx="3174" dy="731" grid="1" gridSize="10" guides="1" tooltips="1" connect="1" arrows="1" fold="1" page="1" pageScale="1" pageWidth="850" pageHeight="1100" math="0" shadow="0">
            <root>
                <mxCell id="0"/>
                <mxCell id="1" parent="0"/>
                <mxCell id="2" value="&lt;div style=&quot;color: rgb(204, 204, 204); background-color: rgb(31, 31, 31); font-family: Consolas, &amp;quot;Courier New&amp;quot;, monospace; font-size: 14px; line-height: 19px;&quot;&gt;&lt;div&gt;&lt;span style=&quot;color: #c586c0;&quot;&gt;graph&lt;/span&gt; &lt;span style=&quot;color: #dcdcaa;&quot;&gt;TD&lt;/span&gt;;&lt;/div&gt;&lt;div&gt;&amp;nbsp; &amp;nbsp; &lt;span style=&quot;color: #9cdcfe;&quot;&gt;A&lt;/span&gt;&lt;span style=&quot;color: #c586c0;&quot;&gt;--&amp;gt;&lt;/span&gt;&lt;span style=&quot;color: #9cdcfe;&quot;&gt;B&lt;/span&gt;;&lt;/div&gt;&lt;div&gt;&amp;nbsp; &amp;nbsp; &lt;span style=&quot;color: #9cdcfe;&quot;&gt;A&lt;/span&gt;&lt;span style=&quot;color: #c586c0;&quot;&gt;--&amp;gt;&lt;/span&gt;&lt;span style=&quot;color: #9cdcfe;&quot;&gt;C&lt;/span&gt;;&lt;/div&gt;&lt;div&gt;&amp;nbsp; &amp;nbsp; &lt;span style=&quot;color: #9cdcfe;&quot;&gt;B&lt;/span&gt;&lt;span style=&quot;color: #c586c0;&quot;&gt;--&amp;gt;&lt;/span&gt;&lt;span style=&quot;color: #9cdcfe;&quot;&gt;D&lt;/span&gt;;&lt;/div&gt;&lt;div&gt;&amp;nbsp; &amp;nbsp; &lt;span style=&quot;color: #9cdcfe;&quot;&gt;C&lt;/span&gt;&lt;span style=&quot;color: #c586c0;&quot;&gt;--&amp;gt;&lt;/span&gt;&lt;span style=&quot;color: #9cdcfe;&quot;&gt;D&lt;/span&gt;;&lt;/div&gt;&lt;/div&gt;" style="graph TD;&#10;    A--&gt;B;&#10;    A--&gt;C;&#10;    B--&gt;D;&#10;    C--&gt;D;" vertex="1" parent="1">
                    <mxGeometry x="210" y="170" width="120" height="60" as="geometry"/>
                </mxCell>
                <mxCell id="3" value="" style="rounded=0;whiteSpace=wrap;html=1;graph TD;&#10;    A--&gt;B;&#10;    A--&gt;C;&#10;    B--&gt;D;&#10;    C--&gt;D;" vertex="1" parent="1">
                    <mxGeometry x="80" y="60" width="120" height="60" as="geometry"/>
                </mxCell>
            </root>
        </mxGraphModel>
    </diagram>
</mxfile>